<svg xmlns="http://www.w3.org/2000/svg" aria-hidden="true" style="width:0;height:0;position:absolute;overflow:hidden"><defs><symbol id="icon-cocktail" viewBox="0 0 64 32"><path d="M32 32 0 0h64L32 32z"/></symbol><symbol id="icon-menu" viewBox="0 0 60 32"><path d="M2 0h56a2 2 0 1 1 0 4H2a2 2 0 1 1 0-4zm0 14h56a2 2 0 1 1 0 4H2a2 2 0 1 1 0-4zm0 14h56a2 2 0 1 1 0 4H2a2 2 0 1 1 0-4z"/></symbol><symbol id="icon-close" viewBox="0 0 32 32"><path d="m17.254 16 7.369-7.369a.886.886 0 0 0-.047-1.207.893.893 0 0 0-1.207-.047L16 14.746 8.631 7.368A.892.892 0 0 0 7.369 8.63l7.378 7.369-7.378 7.369a.891.891 0 0 0-.249.999.881.881 0 0 0 .503.503.897.897 0 0 0 .712-.027.891.891 0 0 0 .288-.222l7.378-7.369 7.369 7.369a.886.886 0 0 0 1.207-.047.888.888 0 0 0 .047-1.207l-7.369-7.369z"/></symbol><symbol id="icon-arrow" viewBox="0 0 32 32"><path d="m16.724 21.24 10.62-11.146a1.001 1.001 0 0 0 0-1.38l-.012-.012a.921.921 0 0 0-1.334 0l-10 10.496L6.002 8.702a.921.921 0 0 0-1.334 0l-.012.012a1.001 1.001 0 0 0 0 1.38l10.62 11.146a.994.994 0 0 0 .724.31.993.993 0 0 0 .724-.31z"/></symbol><symbol id="icon-full-heart" viewBox="0 0 35 32"><path d="m17.684 32-2.564-2.302C6.013 21.554 0 16.183 0 9.591 0 4.22 4.28 0 9.726 0c3.077 0 6.03 1.413 7.958 3.645C19.612 1.413 22.565 0 25.642 0c5.447 0 9.726 4.22 9.726 9.591 0 6.592-6.013 11.963-15.12 20.124l-2.564 2.284z"/></symbol><symbol id="icon-empty-heart" viewBox="0 0 37 32"><path d="M26.674 2.56c.92-.001 1.83.184 2.678.545s1.616.889 2.261 1.554c1.327 1.365 2.071 3.204 2.071 5.12s-.744 3.755-2.071 5.12L18.527 28.326 5.441 14.899c-1.327-1.365-2.071-3.204-2.071-5.12s.744-3.755 2.071-5.12a6.922 6.922 0 0 1 2.261-1.554 6.833 6.833 0 0 1 5.356 0c.848.36 1.617.889 2.261 1.554l3.208 3.328 3.196-3.302c.642-.673 1.411-1.208 2.262-1.574s1.766-.553 2.69-.551zm0-2.56c-1.256-.001-2.5.252-3.658.744s-2.208 1.214-3.087 2.123l-1.402 1.434-1.402-1.434c-.881-.907-1.93-1.628-3.088-2.119S11.636.003 10.38.003c-1.256 0-2.499.253-3.657.745S4.515 1.96 3.635 2.867C1.844 4.715.84 7.202.84 9.792s1.004 5.077 2.795 6.925L18.528 32l14.893-15.283c1.791-1.848 2.795-4.335 2.795-6.925s-1.004-5.077-2.795-6.925c-.88-.908-1.93-1.629-3.088-2.121S27.932 0 26.676 0z"/></symbol><symbol id="icon-profile" viewBox="0 0 31 32"><path d="M15.61 2.992C8.429 2.992 2.602 8.82 2.602 16S8.43 29.008 15.61 29.008c7.18 0 13.008-5.828 13.008-13.008S22.79 2.992 15.61 2.992zm0 5.203c2.511 0 4.553 2.042 4.553 4.553s-2.042 4.553-4.553 4.553-4.553-2.042-4.553-4.553 2.042-4.553 4.553-4.553zm0 18.212c-2.641 0-5.763-1.067-7.987-3.746a12.938 12.938 0 0 1 15.974 0c-2.224 2.68-5.346 3.746-7.987 3.746z"/></symbol><symbol id="icon-search" viewBox="0 0 31 32"><path d="M12.8 23.68c2.272 0 4.478-.761 6.268-2.161l5.627 5.627 1.81-1.81-5.627-5.627a10.184 10.184 0 0 0 2.162-6.269c0-5.646-4.594-10.24-10.24-10.24S2.56 7.794 2.56 13.44 7.154 23.68 12.8 23.68zm0-17.92c4.236 0 7.68 3.444 7.68 7.68s-3.444 7.68-7.68 7.68-7.68-3.444-7.68-7.68 3.444-7.68 7.68-7.68z"/></symbol><symbol id="icon-chevron-down" viewBox="0 0 32 32"><path d="m7.791 12.791 7.543 7.543 7.543-7.543-.943-.943-6.6 6.6-6.6-6.6-.943.943z"/></symbol></defs></svg>